<?xml version="1.0" encoding="UTF-8" standalone="no"?>
<!-- Created with Inkscape (http://www.inkscape.org/) -->

<svg
   xmlns:dc="http://purl.org/dc/elements/1.1/"
   xmlns:cc="http://creativecommons.org/ns#"
   xmlns:rdf="http://www.w3.org/1999/02/22-rdf-syntax-ns#"
   xmlns:svg="http://www.w3.org/2000/svg"
   xmlns="http://www.w3.org/2000/svg"
   xmlns:sodipodi="http://sodipodi.sourceforge.net/DTD/sodipodi-0.dtd"
   xmlns:inkscape="http://www.inkscape.org/namespaces/inkscape"
   id="svg2985"
   version="1.1"
   inkscape:version="0.48.2 r9819"
   width="318"
   height="159"
   sodipodi:docname="sol.jpg">
  <metadata
     id="metadata2991">
    <rdf:RDF>
      <cc:Work
         rdf:about="">
        <dc:format>image/svg+xml</dc:format>
        <dc:type
           rdf:resource="http://purl.org/dc/dcmitype/StillImage" />
        <dc:title></dc:title>
      </cc:Work>
    </rdf:RDF>
  </metadata>
  <defs
     id="defs2989" />
  <sodipodi:namedview
     pagecolor="#ffffff"
     bordercolor="#666666"
     borderopacity="1"
     objecttolerance="10"
     gridtolerance="10"
     guidetolerance="10"
     inkscape:pageopacity="0"
     inkscape:pageshadow="2"
     inkscape:window-width="1253"
     inkscape:window-height="978"
     id="namedview2987"
     showgrid="false"
     inkscape:zoom="0.97169811"
     inkscape:cx="29.134772"
     inkscape:cy="142.59673"
     inkscape:window-x="0"
     inkscape:window-y="0"
     inkscape:window-maximized="0"
     inkscape:current-layer="svg2985" />
  <path
     style="fill:#d80000;fill-opacity:1;stroke:none"
     d="M 6.6893204,156.42719 3.6019417,5.145631 193.73301,5.6601941 l 29.07282,3.6019417 -33.4466,26.2427182 -7.71845,-1.029126 -35.10979,14.620906 -3.48244,8.534434 -8.74758,-0.514563 -16.46601,22.640776 -0.51457,7.203884 -22.640779,16.466025 25.728159,-10.805831 0.51456,-12.864078 15.95146,-19.038835 4.63107,0.514563 -3.52659,8.082298 2.90546,3.690227 -4.00994,13.698349 9.6572,2.767671 6.80882,-6.112331 2.57282,-11.320388 4.63106,-2.572816 -3.48244,-1.543689 3.99701,-8.23301 28.5141,4.449142 10.07813,17.677072 -2.31554,7.075242 -10.03398,-14.793689 -21.25315,-2.453317 19.70947,6.055259 8.74757,12.349514 -2.57282,4.631068 -8.74757,-10.03398 -15.69417,-1.54369 14.92233,3.601942 6.68932,10.805825 -3.08739,4.116512 -4.37378,-6.946608 -21.09709,-0.257282 0.2885,5.84212 -10.77462,0.66527 -1.1669,17.63294 -11.7596,0.81598 -10.03398,-2.57281 6.35669,4.8286 -43.405236,30.93353 -41.422331,0 30.101942,-25.47087 -41.133834,27.96834 -7.813981,-2.30451 34.79733,-27.20752 -42.129854,28.55825 z"
     id="path3763"
     inkscape:connector-curvature="0"
     sodipodi:nodetypes="cccccccccccccccccccccccccccccccccccccccccccccccccccccc" />
  <path
     style="fill:#000000;fill-opacity:1;stroke:none"
     d="m 233.29005,4.7597087 37.88471,2.9587378 -36.01942,29.3300965 44.25243,-31.902912 12.1244,0.03216 -9.74455,9.615898 12.89625,-9.3264562 16.8841,0.4502426 4.88834,-1.8009708 -5.66019,149.2233054 -213.663191,2.30261 40.317851,-34.02359 8.95536,0.1507 0.75891,2.75475 14.92233,1.02912 8.63279,-6.45751 1.9557,2.31955 10.0059,-6.50384 0.86415,-3.50207 6.68576,-4.32073 -2.00118,-3.45658 7.45895,-10.824578 2.81984,0.545777 6.09451,-12.734787 2.54695,-1.910216 2.54696,-8.186648 40.02362,-31.291192 -36.3851,24.196096 -3.63852,-5.821617 -1.34883,8.456859 -7.20167,13.738056 -9.36648,-20.193734 -31.74869,-1.273479 -5.09391,8.914351 -2.91081,-2.183106 1.09155,3.63851 -1.27347,8.732426 -6.18547,8.186649 -4.54814,-2.183107 2.72888,-11.097457 -1.81925,-2.365032 3.82043,-7.822798 2.36503,-10.915532 31.32241,-14.340903 10.33854,4.516925 z"
     id="path3765"
     inkscape:connector-curvature="0"
     sodipodi:nodetypes="cccccccccccccccccccccccccccccccccccccccccccccc" />
  <path
     style="fill:#000000;fill-opacity:1;stroke:none"
     d="m 150.38107,121.95146 10.4199,1.67233 0,-21.35437 -8.36165,1.15777 z"
     id="path3767"
     inkscape:connector-curvature="0" />
  <path
     style="fill:#000000;fill-opacity:1;stroke:none"
     d="m 162.60195,122.46602 c 0,0 8.36165,-6.30339 8.61893,-6.81796 0.25728,-0.51456 -0.77185,-17.495147 -0.77185,-17.495147 l -5.78883,0.514562 z"
     id="path3769"
     inkscape:connector-curvature="0"
     sodipodi:nodetypes="csccc" />
  <path
     style="fill:#000000;fill-opacity:1;stroke:none"
     d="m 175.0801,97.89563 -1.41505,19.42476 7.46117,-3.85922 -1.02913,-14.665054 z"
     id="path3771"
     inkscape:connector-curvature="0"
     sodipodi:nodetypes="ccccc" />
  <path
     style="fill:#000000;fill-opacity:1;stroke:none"
     d="m 182.92719,100.59709 -0.77185,0.38591 2.05825,7.33254 2.31553,-1.67233 z"
     id="path3775"
     inkscape:connector-curvature="0"
     sodipodi:nodetypes="ccccc" />
</svg>
