<?xml version="1.0" encoding="UTF-8" standalone="no"?>
<!-- Created with Inkscape (http://www.inkscape.org/) -->

<svg
   xmlns:svg="http://www.w3.org/2000/svg"
   xmlns="http://www.w3.org/2000/svg"
   xmlns:sodipodi="http://sodipodi.sourceforge.net/DTD/sodipodi-0.dtd"
   xmlns:inkscape="http://www.inkscape.org/namespaces/inkscape"
   id="svg3004"
   version="1.1"
   inkscape:version="0.48.2 r9819"
   width="354.33069"
   height="354.33069"
   xml:space="preserve"
   sodipodi:docname="sparvlogo.svg"><defs
     id="defs3008" /><sodipodi:namedview
     pagecolor="#ffffff"
     bordercolor="#666666"
     borderopacity="1"
     objecttolerance="10"
     gridtolerance="10"
     guidetolerance="10"
     inkscape:pageopacity="0"
     inkscape:pageshadow="2"
     inkscape:window-width="1251"
     inkscape:window-height="686"
     id="namedview3006"
     showgrid="true"
     inkscape:zoom="0.63429569"
     inkscape:cx="160.19625"
     inkscape:cy="185.21367"
     inkscape:window-x="0"
     inkscape:window-y="0"
     inkscape:window-maximized="0"
     inkscape:current-layer="svg3004"
     inkscape:snap-global="false"
     units="cm" /><g
     id="g3012"
     inkscape:groupmode="layer"
     inkscape:label="futuremylove"
     transform="matrix(1.25,0,0,-1.25,0,354.33072)"><g
       id="g4180"
       transform="matrix(1.9789384,0,0,1.9789384,-351.26741,-755.68411)"><path
         transform="matrix(0.8,0,0,-0.8,0,841.88976)"
         inkscape:connector-curvature="0"
         id="path3327"
         d="m 311.81102,400.39368 0,56.69291 28.34646,0 0,28.34646 -28.34646,0 0,28.34646 -85.03937,0 0,28.34645 113.38583,0 0,-28.34645 28.34646,0 0,-113.38583 z"
         style="fill:#666666;fill-opacity:1;stroke:none" /><path
         transform="matrix(0.8,0,0,-0.8,0,841.88976)"
         inkscape:connector-curvature="0"
         id="path3329"
         d="m 368.50394,428.74014 28.34645,0 0,28.34645 -28.34645,0 z"
         style="fill:#ffe000;fill-opacity:1;stroke:none" /><path
         transform="matrix(0.8,0,0,-0.8,0,841.88976)"
         inkscape:connector-curvature="0"
         id="path3331"
         d="m 283.46457,457.08659 0,28.34646 -28.34646,0 0,28.34646 56.69291,0 0,-28.34646 28.34646,0 0,-28.34646 z"
         style="fill:#dbdbdb;fill-opacity:1;stroke:none" /><path
         transform="matrix(0.8,0,0,-0.8,0,841.88976)"
         inkscape:connector-curvature="0"
         id="path3333"
         d="m 311.81102,542.12596 0,28.34646 28.34646,0 0,-28.34646 z"
         style="fill:#ffe000;fill-opacity:1;fill-rule:nonzero;stroke:none" /></g></g></svg>